<?xml version="1.0" encoding="UTF-8" standalone="no"?>
<!-- Created with Inkscape (http://www.inkscape.org/) -->

<svg
   version="1.1"
   id="svg1"
   width="794.88"
   height="775.67999"
   viewBox="0 0 794.88 775.67999"
   sodipodi:docname="pg-operator-4.svg"
   inkscape:version="1.3.2 (091e20ef0f, 2023-11-25)"
   inkscape:export-filename="pg-operator-3.png"
   inkscape:export-xdpi="96"
   inkscape:export-ydpi="96"
   xmlns:inkscape="http://www.inkscape.org/namespaces/inkscape"
   xmlns:sodipodi="http://sodipodi.sourceforge.net/DTD/sodipodi-0.dtd"
   xmlns="http://www.w3.org/2000/svg"
   xmlns:svg="http://www.w3.org/2000/svg">
  <defs
     id="defs1" />
  <sodipodi:namedview
     id="namedview1"
     pagecolor="#ffffff"
     bordercolor="#000000"
     borderopacity="0.25"
     inkscape:showpageshadow="2"
     inkscape:pageopacity="0.0"
     inkscape:pagecheckerboard="0"
     inkscape:deskcolor="#d1d1d1"
     inkscape:zoom="0.73383478"
     inkscape:cx="273.22226"
     inkscape:cy="478.99065"
     inkscape:window-width="1920"
     inkscape:window-height="1011"
     inkscape:window-x="0"
     inkscape:window-y="32"
     inkscape:window-maximized="1"
     inkscape:current-layer="g2" />
  <g
     inkscape:groupmode="layer"
     inkscape:label="Image"
     id="g1">
    <g
       id="g2">
      <path
         style="display:inline;fill:#ffffff;fill-opacity:1"
         d="m 599.56202,502.21369 -5.95108,-131.53809 -93.46839,-69.00009 -84.25251,-3.24674 -79.74496,3.47086 -58.48708,41.00539 -55.36037,11.25193 -32.25412,-33.73309 67.10147,-91.63767 37.51774,-100.63514 -43.08179,-14.36953 -96.99253,108.99125 -39.48106,189.01143 -61.604556,2.68094 176.496276,90.5224 123.38086,65.71164 95.53764,29.78691 z"
         id="path3"
         sodipodi:nodetypes="cccccccccccccccccc" />
      <path
         style="display:inline;fill:#77a0c0"
         d="m 409.59282,617.31105 -79.04789,4.71504 -6.92868,-86.70647 33.39843,1.20826 z M 561.92,580.99918 c 0,-0.0665 0.252,-0.31845 0.56,-0.56 0.50754,-0.39804 0.51886,-0.38672 0.12082,0.12081 -0.41804,0.53304 -0.68082,0.70256 -0.68082,0.43919 z m 9.28,-9.28 c 0,-0.0665 0.252,-0.31845 0.56,-0.56 0.50754,-0.39804 0.51886,-0.38672 0.12082,0.12081 -0.41804,0.53304 -0.68082,0.70256 -0.68082,0.43919 z m -388.02452,-63.09333 -15.4704,-30.25281 28.12037,0.31551 c 2.67997,0.0301 5.86062,-1.18876 6.28255,-1.30343 0.70662,-0.19205 0.20881,0.98529 0.005,1.79911 -0.14683,0.58503 -0.0522,1.14237 0.28023,1.64965 0.44787,0.68354 0.73596,0.76612 2.67294,0.76612 17.34954,0 42.16024,-11.07972 47.73428,-14.25337 1.45234,-0.8269 3.79421,-1.74663 4.44739,-1.74663 0.35337,0 1.02153,0.1727 1.4848,0.38377 5.85235,2.66653 -17.63908,14.23692 -14.75739,19.71212 3.5158,6.67993 34.52474,1.58106 54.14151,-14.19685 2.3709,-1.90693 3.19617,-2.39951 3.88684,-2.32 0.76604,0.0882 0.88969,0.25745 0.97845,1.33926 0.24821,3.02359 -7.53743,9.10257 -6.81711,12.38214 0.69666,3.17185 3.63173,2.97277 11.19551,-0.75936 31.33875,-13.78055 49.40401,-77.98439 37.27581,-101.45132 C 344.28612,380.01312 344,378.97408 344,378.38078 c 0,-1.05506 0.0357,-1.08347 1.62493,-1.29429 1.40628,-0.18655 1.72744,-0.37104 2.38675,-1.37103 3.19677,-9.21807 -2.55036,-20.38427 -5.01388,-29.31546 -0.62346,-2.25823 -0.57638,-4.34064 0.11757,-5.2 0.17765,-0.22 0.7891,-0.4 1.35878,-0.4 3.707,0 24.90169,26.88 26.40119,26.88 1.51298,0 17.12625,-10.24 17.7919,-10.24 0.43012,0 2.12023,1.6568 1.81965,2.76092 -0.61724,2.26734 -2.03121,27.07177 -3.00815,30.13816 l -27.76482,121.63531 -49.82561,14.44342 z m 390.29478,-12.53566 38.86399,-82.12861 20.38145,5.72963 -42.64756,87.45592 z M 148.12233,473.29933 c -18.86336,-5.09206 -46.14127,-20.79883 -51.981228,-25.32441 -4.486127,-3.47645 -42.688704,-35.21223 -44.699287,-40.27097 -1.811629,-4.55816 0.0774,-5.74932 0.695984,-5.74932 0.163554,0 4.490129,1.62497 5.59206,2.32614 3.345472,2.12875 12.815805,7.93485 14.953681,8.77151 0.395057,0.1546 0.450382,3.00809 1.426592,3.86739 61.086978,57.55789 133.333548,42.22697 136.126708,40.27056 0.63207,-0.44272 2.28327,-2.40339 4.2141,-0.99938 1.12171,0.81566 15.01722,4.00981 13.2044,5.53292 -3.71723,3.12318 -26.8454,9.93019 -40.88469,11.5032 -12.01212,0.55605 -26.73318,3.28879 -38.64832,0.0724 z M 220.64,364.77062 c -6.49344,-0.51527 -13.20715,-1.93381 -18.88,-5.22927 -0.176,-0.18775 -0.86881,-0.53386 -1.53959,-0.76915 -4.28487,-1.50301 -16.34583,-11.5868 -18.81494,-15.99517 -2.5302,-4.51742 -3.13943,-5.80932 -3.79952,-8.05703 -2.6773,-7.66132 -2.87333,-15.62385 -1.9465,-23.68 0.87104,-5.77702 2.39875,-12.70752 3.20951,-14.56 0.15405,-0.352 0.49937,-1.288 0.76737,-2.08 1.63367,-4.82789 2.49337,-6.87224 4.77718,-11.36 0.89566,-1.76 1.85302,-3.64383 2.12748,-4.18629 0.90595,-1.7906 3.65634,-5.86465 6.52649,-9.66745 1.55511,-2.06044 2.94579,-4.03426 3.0904,-4.38626 0.1446,-0.352 0.85224,-1.24644 1.57252,-1.98764 0.72028,-0.7412 1.31073,-1.4612 1.3121,-1.6 0.004,-0.3956 7.85128,-9.16823 11.51619,-12.87405 0.96728,-0.97807 3.10077,-3.29031 4.74108,-5.13831 1.64031,-1.848 3.3689,-3.648 3.84131,-4 0.84143,-0.62697 9.05476,-8.82528 13.1896,-13.16549 1.14987,-1.20698 2.73387,-2.78669 3.52,-3.51046 5.26235,-4.84493 16.27137,-17.3871 16.62932,-18.03883 0.94699,-1.72417 7.00014,-9.22545 8.1198,-11.52522 0.82709,-1.69884 1.41317,-2.36502 2.15672,-3.51863 1.65408,-2.56626 3.41579,-6.29706 5.68332,-12.03565 1.54597,-3.91251 2.12808,-8.14642 1.82113,-13.24572 -0.37824,-4.97524 -1.15396,-9.93489 -2.76814,-14.64585 -1.10654,-5.09992 -2.44207,-10.48329 -2.83665,-11.43415 -1.06016,-4.12236 -1.31239,-6.30313 -1.81532,-7.27569 -0.29556,-0.57154 -0.59062,-2.14963 -0.68511,-3.66411 -0.18851,-3.02169 -0.58501,-7.62164 1.70972,-6.58052 0.7753,0.35175 10.76291,-3.41962 12.05087,-1.25187 l 19.80625,33.3357 -4.76267,45.70209 -76.73999,76.24871 -15.19633,46.29207 18.32112,31.9161 39.96236,2.59879 c 7.71344,-1.47742 2.35392,1.19878 -0.0271,2.91197 -3.66649,2.26476 -7.94015,3.51537 -12.04451,4.83815 -7.35463,1.82189 -14.5149,2.29328 -24.59549,1.61923 z"
         id="path6"
         sodipodi:nodetypes="cccccssssssssccsssssssssssssssssssssssssssccccccccsssssssssscsssssssssssssscssssssssssssssssscccccsss" />
      <path
         style="display:inline;fill:#316690"
         d="m 562.24,775.4666 c -10.49254,-0.95929 -15.92587,-10.31514 -23.86634,-31.42324 -3.60921,-11.30781 -4.43332,-23.332 -6.14051,-35.08337 -0.46165,-2.41016 0.65213,-4.25656 -2.38603,-2.90152 -3.35286,1.54712 -8.67327,3.48657 -9.74268,3.5515 -3.54014,0.27596 -5.90641,-1.9538 -8.31501,-4.10575 -0.20383,-0.12411 -2.29183,0.4755 -4.64,1.33249 -102.48016,37.40084 -190.68392,11.11188 -221.81386,-0.87518 -2.46883,-0.95067 -2.5027,-0.95438 -3.11575,-0.34132 -1.02499,1.02499 -3.76344,3.43889 -6.99856,3.64564 -4.5546,-0.23392 -8.88164,-2.63021 -12.99071,-4.54566 l 0.0527,1.58247 c -0.16465,2.94061 -7.34039,81.04069 -41.23739,65.50041 -30.3204,-13.90056 7.80265,-63.59781 26.36252,-73.56307 0.76014,0 0.0544,-0.61641 -1.84473,-1.61131 -10.21331,-5.35038 -10.778,-6.39018 -10.8179,-11.86305 l -0.0224,-3.07437 -2.36499,-1.37888 C 225.37928,676.24332 213.71809,668.38613 205.6,662.28291 153.5415,623.14502 114.39136,568.89142 94.104736,507.77468 c -1.14746,-3.45691 -1.836078,-5.0745 -2.206399,-5.18293 -0.296085,-0.0867 -1.114336,-0.24928 -1.818336,-0.3613 -7.475446,-0.96575 -8.29786,-7.58131 -9.975151,-13.69655 -0.591623,-2.16126 -0.605145,-2.17867 -1.190168,-1.53223 -0.32546,0.35963 -1.139843,0.93956 -1.809739,1.28873 C 55.36669,499.91948 9.8877857,530.42707 1.5167298,496.16 -7.0700974,461.00966 52.355123,468.38665 72.909302,470.21741 c 1.292115,0.0996 2.480115,0.26186 2.64,0.36067 0.36812,0.22752 0.364901,-0.0814 -0.02078,-1.99369 -1.72452,-7.53568 -2.833452,-12.91233 4.071479,-17.35809 1.220852,-0.4977 1.407892,-1.61408 0.419909,-2.50632 C 35.506467,417.83635 20.975803,374.57592 21.954237,372.02617 22.295003,371.13815 24.64,371.71862 24.64,372.691 c 21.47826,24.54959 52.14417,35.4315 52.65427,34.92139 2.464976,-2.46634 -6.813812,-83.79617 51.33385,-174.49239 2.78908,-4.35028 3.04794,-4.88245 2.76287,-5.68 -5.34623,-7.48054 1.42652,-13.16038 4.60181,-19.91556 -0.3391,0.20958 -3.40548,-0.67876 -4.02455,-1.16591 -21.97997,-8.25451 -72.497734,-29.05213 -51.965018,-53.56864 22.048898,-26.32686 55.405608,19.65742 65.596768,41.07337 0,0.1641 0.20129,0.46543 0.4473,0.6696 0.3548,0.29445 0.59237,0.18674 1.14876,-0.52082 5.83671,-8.0808 9.12319,-10.31227 17.8392,-7.77401 0.2174,0.001 2.08771,-1.7409 4.15624,-3.87107 15.55785,-16.0214 36.62212,-33.11901 55.7685,-45.2666 2.728,-1.7308 5.03052,-3.20096 5.1167,-3.26701 0.0862,-0.066 0.25836,-1.22557 0.3826,-2.57672 0.62611,-10.69018 4.66041,-20.15092 12.51337,-27.17663 0.69339,-0.59653 4.30398,-2.66502 7.00591,-1.98535 0.75978,0.19113 1.88542,0.46549 2.50142,0.6097 3.40693,0.79753 7.12726,3.5686 20.99438,5.96206 l 4.83438,0.83441 6.84562,-2.55536 c 27.36375,-9.6534 56.05334,-17.520371 85.1838,-19.267957 0.39869,-0.0026 1.18182,-1.421535 1.18182,-2.1413 0,-0.228912 0.144,-0.416204 0.32,-0.416204 0.176,0 0.32,-0.259807 0.32,-0.57735 0,-0.82901 1.74782,-3.467984 2.59837,-3.923181 0.39672,-0.212321 0.99896,-0.644703 1.3383,-0.960848 0.79353,-0.739284 1.76637,-0.867646 8.52488,-1.124816 4.25853,-0.162043 5.46485,-0.297886 5.08924,-0.573095 C 381.73243,61.520606 377.76423,41.544411 377.50233,23.52 377.32253,5.433551 387.97568,-4.0249815 405.25402,0.27796728 c 16.98752,4.23052492 9.251,60.18084372 0.92674,76.99323372 -0.23142,0.347161 -0.42076,0.727832 -0.42076,0.845935 0,0.118103 2.412,0.308475 5.36,0.423049 6.54364,0.254318 7.51647,0.385355 8.30333,1.118435 0.33935,0.316145 0.93012,0.742391 1.31283,0.947212 1.01308,0.542184 2.90825,3.671148 3.32986,5.497671 0.20015,0.867073 0.47499,1.576496 0.61077,1.576496 79.00467,6.522897 143.95034,40.864261 201.28701,94.977391 3.27905,3.39231 4.04894,4.03373 4.73589,3.94566 4.14011,-1.36065 8.01144,-1.80991 11.70031,1.7373 2.77285,2.82708 5.00101,5.25526 6.00096,6.53969 0.71745,0.92155 0.87258,1.00599 0.8755,0.47658 0.006,-1.05177 29.05905,-51.5387 52.75936,-50.89304 13.41395,0.72116 21.37605,21.86076 18.90306,23.38951 -0.11692,0.0723 -0.29161,0.61841 -0.38821,1.21368 -3.37466,20.79539 -60.4405,38.9975 -60.59239,39.01007 -0.41703,0.0345 -0.75671,0.13935 -0.75483,0.23296 0.002,0.0936 0.57634,0.89021 1.27659,1.77021 9.77232,12.28065 4.55229,16.59391 4.00471,16.99528 -0.26659,0.1954 -0.48471,0.5074 -0.48471,0.69333 0,0.18593 -0.17466,0.39628 -0.38815,0.46744 -0.23787,0.0793 0.98226,2.28873 3.15141,5.70666 20.72355,32.65411 62.14721,112.99498 47.60756,215.71721 -0.20255,1.431 -0.16637,1.52786 0.78729,2.10782 0.54978,0.33434 0.90411,0.70337 0.78741,0.82007 6.01748,2.17416 4.64769,11.69589 3.29914,16.8593 -0.0832,0.26009 -0.2352,0.85783 -0.33786,1.32833 -0.18293,0.83835 -0.16909,0.8467 0.69327,0.41815 22.32054,-3.10924 49.89633,-6.52609 69.53101,6.73353 9.26381,5.99501 5.85724,28.06245 -5.45108,33.14562 -14.50689,6.52085 -53.46083,-12.63609 -66.79591,-22.74616 l -1.67591,-1.27062 -0.19618,0.87199 c -3.11123,13.82917 -6.78134,14.8906 -11.28986,15.1817 l -1.39787,0.0903 c -17.41797,50.6543 -56.24192,127.5978 -139.28427,176.78496 -1.584,0.93822 -3.03909,1.90036 -3.23354,2.13808 -0.94732,1.1581 0.81672,3.81151 -1.10214,7.61503 -1.29888,2.57504 -1.83414,2.88838 -11.99405,8.24519 l 2.4954,2.44837 c 12.49947,12.26388 45.51723,47.3356 33.65927,64.90785 -2.94419,4.36295 -15.54582,10.59147 -20.62494,10.12712 z M 412.96546,662.07108 c 20.32906,-1.30737 40.33413,-4.93818 59.71721,-10.83833 7.16557,-2.18118 7.08091,-2.14533 6.84212,-2.89768 -0.19074,-0.60096 -6.52975,-13.82617 -6.72932,-14.03953 -0.0537,-0.0574 -2.7387,0.69227 -5.96659,1.66605 -58.268,17.57806 -108.75319,9.05769 -138.77776,0 -3.22788,-0.97378 -5.91136,-1.7235 -5.96329,-1.66605 -0.59405,0.65722 -6.89165,14.46477 -6.68612,14.65938 0.2897,0.27431 6.16374,2.14292 11.95829,3.80409 11.46491,3.28674 45.93462,11.86348 85.60546,9.31204 z M 262.867,614.50617 l 3.49429,-7.25381 -0.76677,-0.50618 c -32.90054,-21.71916 -60.56825,-51.91949 -79.20923,-86.4598 -2.45278,-4.54482 -2.5701,-4.69865 -4.25679,-5.58175 -2.66937,-1.39759 -7.63163,-5.09017 -10.24272,-7.62193 -2.60386,-2.52477 -7.02297,-8.25376 -9.40917,-12.1982 -0.85028,-1.40552 -1.71935,-2.65218 -1.93128,-2.77037 -0.53834,-0.30021 -3.77146,0.38163 -3.94421,0.8318 15.82032,51.43737 54.00962,94.58198 96.97765,125.36224 2.80432,1.8985 5.25518,3.45182 5.44636,3.45182 0.19117,0 1.92002,-3.26421 3.84187,-7.25382 z m 278.43423,3.802 c 36.57851,-25.58542 87.64853,-79.65189 96.90669,-125.48909 -0.29406,-0.27448 -14.29676,-3.54184 -15.16792,-3.53926 -2.38659,0.007 -19.89592,68.71534 -93.73729,117.45492 l -0.74954,0.49474 3.47563,7.26526 c 1.9116,3.99589 3.6327,7.26525 3.82465,7.26525 0.19196,0 2.64346,-1.55332 5.44778,-3.45182 z M 399.95908,614.7188 c 0.9295,-7.5e-4 1.88289,-0.24626 2.56046,-0.65934 1.00238,-0.61111 1.0672,-0.75014 0.90691,-1.94524 -0.0949,-0.70789 -0.26885,-1.38319 -0.38644,-1.50065 -0.1176,-0.11747 -5.2777,-0.24806 -11.46691,-0.29021 -5.47739,-0.0373 -22.47292,-0.46119 -25.4931,-4.25079 -0.088,-0.11043 -0.664,-0.47512 -1.28,-0.81042 -3.08963,-1.68177 -5.50683,-6.06467 -6.32925,-7.70288 -2.2024,-4.38709 -3.58208,-6.48333 -6.81815,-10.35928 -2.68891,-3.25454 -5.54292,-6.52528 -8.99504,-8.99515 -2.9209,-1.99517 -4.1067,-1.51589 -2.85225,1.15284 0.37108,0.78944 0.67469,1.62586 0.67469,1.85872 0,0.25386 3.52,9.61849 3.52,9.6855 0,0.63414 1.57822,5.29251 1.95242,5.76288 0.15086,0.18963 0.57453,1.34163 0.94148,2.56 2.17827,7.23236 6.42146,13.16455 11.0261,15.41502 0.88,0.43009 2.02079,1.00382 2.53509,1.27495 12.9861,2.86743 26.51851,-0.0299 39.50399,-1.19595 z M 297.6,542.02176 c -21.69095,-18.90876 -54.19423,-15.78827 -81.03566,-19.4765 -0.75513,-0.41485 -1.20434,-0.38357 -1.20434,0.0839 14.63842,25.19068 36.92197,44.95142 60,62.21371 0.528,0.39883 1.08539,0.69054 1.23864,0.64827 0.37098,-0.1024 21.00136,-43.05199 21.00136,-43.46938 z m 80.816,42.00533 c 0.1672,-0.1611 0.6493,-0.3411 1.07132,-0.4 1.06349,-0.14843 1.44468,-0.90314 1.17696,-2.3302 -0.18054,-0.96238 -0.969,-1.98526 -3.88289,-5.03734 -3.96817,-4.15636 -7.20452,-8.27002 -8.85448,-11.25477 -2.77195,-6.03307 -4.33434,-10.24045 -9.68691,-13.9226 -0.7136,-0.58224 -1.55542,-1.08483 -3.68,-2.19711 -3.34551,-1.5806 -6.50707,-3.56469 -9.92,-4.96164 -3.96736,-1.5545 -9.04748,-2.48344 -13.58129,-2.48344 -2.58269,0 -2.73871,0.0389 -2.73871,0.68288 0,0.76479 0.63466,3.14471 0.96993,3.63712 0.11983,0.176 0.70662,1.89278 1.30397,3.81505 1.28544,4.13653 1.81353,4.76266 5.13009,6.08262 2.30547,0.91754 5.62343,2.99909 10.2569,6.19222 4.78823,3.29979 10.07037,8.38331 11.36518,10.93782 0.31566,0.62276 0.65295,1.20429 0.74952,1.29229 0.41829,0.38117 3.80466,5.39038 4.40068,6.50962 0.36014,0.67628 1.12375,1.64828 1.6969,2.16 l 1.0421,0.93038 5.46237,0.005 c 3.0043,0.003 5.67836,0.14449 5.94236,0.3151 0.60845,0.39321 1.38374,0.40504 1.776,0.0271 z m 26.864,-24.34303 c 4.26774,-0.58036 10.10101,-1.58575 12.63458,-2.17762 2.97984,-0.69613 3.17163,-1.0588 2.60525,-4.92632 -0.38426,-2.62387 -0.76132,-11.61785 -1.31013,-31.25038 -0.15421,-5.51665 -0.42672,-10.70065 -0.60557,-11.52 -0.49458,-2.26571 -0.76462,-9.07636 -0.39811,-10.04037 0.38445,-1.01117 1.25575,-1.33734 2.40513,-0.90034 0.92237,0.35068 2.42001,3.0828 2.42573,4.4252 3.24903,16.37218 8.1398,33.49092 18.54289,46.73538 l 0.99826,1.06962 3.27098,-0.82253 c 5.49108,-1.3808 25.10638,-7.06705 26.63099,-7.72002 0.528,-0.22614 1.824,-0.66761 2.88,-0.98106 5.54864,-14.92029 -5.84984,-38.04972 -8.63934,-54.41915 -0.94431,-5.71254 -0.95322,-5.93824 -0.28978,-7.33635 1.35271,-2.85063 3.56651,-1.11862 6.97866,5.45988 10.83944,20.89781 13.43372,25.62109 21.1353,37.02549 2.22392,3.29316 3.21569,4.67175 5.67215,7.88451 l 1.30746,1.71 1.47778,-0.2196 c 2.926,-0.43478 30.53382,-11.91224 43.71777,-23.12965 3.67755,-3.129 3.6818,-3.09694 -1.02557,-7.7355 C 533.18619,486.4925 518.18609,473.20581 509.36548,456 c -0.39901,-0.792 -0.95518,-1.69523 -1.23594,-2.00717 -0.28075,-0.31194 -0.77503,-1.34552 -1.09839,-2.29685 -0.48786,-1.43523 -0.51686,-1.81533 -0.17036,-2.23283 0.46909,-0.56523 1.33493,-0.65944 1.79865,-0.19571 0.1691,0.16909 1.65128,1.01254 3.29374,1.87434 5.3569,2.81073 45.01706,28.77662 52.6546,32.87593 1.20925,0.64905 1.72278,0.77086 2.24561,0.53264 2.89262,-1.318 23.46581,-40.58709 23.68467,-53.35035 0.0214,-1.24976 -0.55162,-0.63792 -1.89806,-2.24973 -0.69489,-0.83184 -36.67015,-19.43615 -39.84,-21.55604 -3.06172,-2.04758 -4.1591,-2.86942 -2.97918,-4.04934 11.87517,-1.00173 44.80718,7.36331 47.31492,5.28205 1.52667,-1.26704 -1.52277,-37.16933 -1.71185,-37.17997 -1.98908,-0.11193 -6.07095,-0.25937 -22.78389,-6.32541 -23.93362,-8.68681 -49.65859,-46.76087 -71.18539,-57.74516 -8.32845,-5.06022 -18.43819,-5.22278 -27.91343,-4.6932 -15.55781,1.12148 -28.71656,7.28366 -39.14118,9.45612 -3.42071,0.71287 -8.07231,0.65519 -10.61986,-0.13166 -4.6895,-1.44844 -8.296,-5.1152 -8.81153,-8.95876 -0.16641,-1.24069 -0.19693,-1.26605 -1.96882,-1.63605 -2.09593,-0.43767 -11.72118,-0.23171 -15.23979,0.3261 -12.89714,2.04458 -19.93393,2.78566 -30.88,3.25209 -4.136,0.17625 -8.672,0.45296 -10.08,0.61491 -15.32958,1.7633 -18.01463,2.39725 -22.84673,5.39421 -9.96616,7.21249 -19.7114,15.05993 -28.84253,23.26924 -11.9633,10.5657 -26.85658,15.96618 -41.11778,22.38218 -2.68134,1.47811 -5.7036,1.61291 -8.63296,2.26284 -3.1583,0.73433 -4.39135,0.83559 -12,0.98542 -34.26597,0.67476 -61.91824,-24.33181 -41.99086,-69.97984 3.80444,-8.34757 8.35036,-16.55348 14.1001,-23.72433 12.49065,-15.91635 28.21658,-28.81101 43.11774,-42.35567 0.56775,-0.528 2.79333,-2.544 4.94574,-4.48 16.03986,-14.42718 23.02728,-25.56474 23.02728,-26.65665 0,-0.16774 0.22723,-0.49357 0.50496,-0.72407 5.33418,-7.57174 7.63138,-17.10422 7.40716,-26.21928 -0.12695,-4.64279 -0.26952,-5.92382 -0.83411,-7.49443 -0.0173,-0.10455 -12.8023,-20.87831 -12.84238,-27.75393 -0.0285,-4.8851 -2.97533,-0.98382 -18.39563,-8.66456 -6.71251,-3.59057 -9.05949,-6.39653 -10.88992,2.31292 -0.50079,2.59799 -0.59072,4.8313 -0.61854,15.36 -0.0344,13.00287 -0.0201,12.85051 -1.67906,17.88662 -0.46491,1.4113 -0.95357,4.05934 -1.21057,6.56 -4.25566,41.40898 -44.39054,39.05257 -81.50228,97.3905 -0.6492,1.01358 -1.1892,1.99948 -1.2,2.19087 -26.59286,55.55595 -28.88937,106.21618 15.76488,155.12902 0.84948,0.63964 1.90436,1.16299 2.34417,1.16299 4.51477,-0.16049 10.01822,-5.31877 14.18377,-2.28846 3.58647,3.0048 -2.25136,7.06471 10.42655,23.28076 8.57933,11.4232 22.46122,11.92571 35.68752,13.61345 3.34982,1.00363 5.51597,5.63051 -2.43809,9.74253 -11.38268,5.88451 -32.44164,15.9672 -59.74843,16.47367 l -5.68,0.0244 v 0.93394 c 0,1.117 2.61638,6.26272 4.40572,8.66488 3.99475,5.3629 9.12414,9.9289 13.34573,11.8799 10.09444,4.66517 71.59744,-18.48624 119.20855,13.87031 2.62543,2.22274 2.79232,2.30991 4.8,2.5069 12.32853,1.83277 23.18027,-0.96681 32.33142,-9.11302 1.12433,-1.05013 2.21431,-1.90933 2.42217,-1.90933 0.6403,0 0.76639,-0.85922 0.76694,-5.22618 0.005,-52.71793 30.76546,-72.99449 33.26244,-103.51698 -0.0218,-3.95901 -0.74403,-11.10791 -1.17648,-11.64471 -1.14128,-1.41667 -1.42735,-12.40774 -0.36546,-14.04178 0.27533,-0.4237 0.90937,-1.9775 1.40896,-3.4529 2.01481,-5.95001 5.535,-8.83202 6.56086,-11.14386 0.24007,-0.541 1.14847,-1.33205 2.30221,-2.0048 46.14585,-35.30561 113.48107,-9.87972 128.75089,19.91693 1.44047,2.81085 1.72293,4.65736 0.83532,5.46064 -0.81144,0.73435 -1.04374,0.61137 -4.37927,-2.31826 -37.64503,-33.06408 -97.01264,-30.99972 -110.53322,-5.44487 -1.10436,2.20645 -1.30655,2.91491 -1.30533,4.5738 3.07918,16.84209 3.18808,32.39381 -2.56033,48.36132 -12.63227,35.22379 -33.34931,72.0004 -26.24439,110.72162 1.78927,9.69453 8.90528,17.58747 17.44281,22.26766 0.77251,0.36247 8.59283,0.14151 12.16,-0.34359 z M 292.17169,397.40288 c -2.45955,-0.74694 -4.72131,-3.21079 -4.40364,-6.71423 0.33994,-3.74892 2.86799,-6.1694 6.47195,-6.19659 5.93468,-0.0448 9.89631,8.16207 3.25148,12.41815 -1.09861,0.70367 -3.80094,0.95393 -5.31979,0.49267 z m 23.11789,-6.71364 c -17.71023,-18.43497 -23.06029,-21.37555 -41.0319,-0.92924 -0.30037,0 -0.89522,-0.37199 -1.3219,-0.82664 -2.52541,-3.90079 0.60437,-9.52145 2.35057,-13.07199 2.99541,-6.03252 9.53482,-11.87902 15.27915,-13.66015 3.17055,-0.98309 9.97649,-1.07441 12.92146,-0.17337 18.95039,5.79802 18.78548,24.2437 14.75932,28.26986 -1.23761,1.23762 -1.56749,1.2813 -2.9567,0.39153 z m 274.05996,108.99395 c 21.16389,-36.02821 25.63418,-44.88359 34.16435,-78.69087 0.40543,-1.60682 -2.23254,-2.81103 -3.89041,-3.35817 -1.22471,-0.40419 -1.4432,-0.38233 -2.81473,0.28161 -2.20948,1.06959 -2.82331,2.37786 -3.6728,4.58249 -8.33858,21.64055 -8.96436,36.48453 -29.76015,66.88397 -0.23251,0.33988 -0.77881,1.53482 -1.3989,2.55788 -1.52031,2.5083 -1.72716,3.89701 -0.85638,5.74951 0.98962,2.10534 2.53944,3.06696 4.98188,3.09115 1.76943,0.0175 2.45471,0.25141 3.24714,-1.09757 z M 219.52,464.01054 c 3.07759,-1.0605 4.8,-1.88344 4.8,-2.29337 0,-0.74032 -0.4943,-1.2378 -1.23424,-1.24217 -0.95789,-0.006 -3.59208,-0.64731 -5.96576,-1.45315 -13.41176,-4.90231 -21.95792,-17.02802 -28.01976,-29.42185 -0.51727,-1.056 -0.94043,-2.1566 -0.94036,-2.44577 2.4e-4,-1.01781 -0.94068,-1.00939 -5.11988,0.0458 -43.58993,12.7401 -88.916602,-0.89426 -127.80766,-21.22168 -2.00322,-1.09688 -3.081129,-1.14936 -2.842414,-0.13838 0.0935,0.396 0.506517,1.08 0.917806,1.52 C 125.44034,484.52815 192.26936,473.40093 219.52,464.01054 Z M 652.30559,431.6 c 1.73655,-7.92424 6.84289,-95.53661 -36.53575,-159.01441 -0.8915,-1.02964 -12.78211,9.51523 -12.78297,9.51747 -0.0587,0.15296 40.57054,64.46814 33.55217,143.61147 -0.19649,2.21574 -0.16034,2.86947 0.16559,2.99454 0.37019,0.14206 14.62385,3.49512 15.20928,3.57787 0.12864,0.0182 0.3049,-0.29094 0.39168,-0.68694 z M 583.97202,297.4227 c -0.27123,-0.16762 -39.06942,30.53352 -39.53179,31.28164 9.80244,14.43651 29.03516,24.98313 45.95977,27.60702 9.60575,0.95906 10.85026,1.25842 12.96306,3.11818 2.49541,2.19654 2.38415,1.6486 3.33196,16.41046 0.30926,5.74881 1.47654,12.89271 6.36442,16.5017 -2.32418,-33.06017 -11.1852,-66.8805 -29.08742,-94.919 z m -320.35553,41.89871 c 0.44966,-0.37175 -52.3405,-42.31532 -52.57649,-41.93508 -23.83807,38.40857 29.57828,60.9483 52.57649,41.93508 z m 54.87795,-37.93195 c 0.38079,-0.2038 0.88612,-0.56431 1.12295,-0.80113 4.73507,-4.73507 21.1989,-9.99357 41.37008,-10.02144 l 4.98746,-0.007 C 366.3976,257.89403 366.4,225.22549 366.4,192.55755 l -1.68,0.21619 c -41.3222,5.75123 -78.46898,25.12435 -109.93539,51.76685 -2.51646,2.12481 -4.53246,4.05057 -4.48,4.27947 0.13884,0.60574 65.62314,52.86951 66.91643,52.91811 0.31957,0.012 0.8926,-0.14492 1.2734,-0.34871 z M 430.896,297.33018 c 21.07903,-7.91949 40.07926,-11.67785 62.51655,-7.31594 11.97409,-9.61296 51.54745,-40.99579 51.54745,-41.36933 0,-2.82121 -53.36744,-47.96577 -116.48,-56.08738 -0.0833,35.01494 0.14387,70.02892 0.42539,105.04245 h 0.84331 c 0.42234,0.0547 0.77487,-0.147 1.1473,-0.2698 z m 145.67976,-73.9718 C 576.52306,223.21749 574.968,221.68233 573.12,219.94691 535.54862,185.85137 481.05754,155.75022 429.29015,152.32 H 428.48 v 16.18691 l 4.72,0.72511 c 47.54421,7.30394 91.79843,28.51675 126.48,60.6269 2.2,2.03689 4.10795,3.7119 4.23988,3.72225 0.30239,0.0238 12.78352,-9.88131 12.65588,-10.22279 z M 306.9017,184.30408 c 17.36531,-7.05351 36.05332,-12.19545 54.7783,-15.07206 l 4.72,-0.72511 V 152.32 h -0.81014 c -2.16169,0 -28.74165,3.6818 -53.58986,12.60479 l -4.64,1.66623 -0.23393,1.42449 c -1.32891,8.09214 -2.63472,13.56688 -3.47838,14.58342 -0.17302,0.20847 -0.43753,0.789 -0.5878,1.29005 -0.15028,0.50106 -0.37564,1.16302 -0.5008,1.47102 -0.12516,0.308 -0.0944,0.56 0.0684,0.56 0.16276,0 2.08617,-0.72717 4.27424,-1.61592 z"
         id="path9"
         sodipodi:nodetypes="sssssssssscssssscssssssssssssssssssssssssscsssssssscsssssssssssssssssssssssssssssssssssssssssscsscssscsssssssssssssssscsssssssssssssscsssssssssssssssssssssssssssssssssssssssssssssccssscsssssscscsssssssscssssssssssssssssssssssssssssssssssssssssssssssssssssssscssssssscsssssssssscsssccssssssssssssssssssssssssscssssssssssssssssssssssssssscccsssssscsccsssssccssssssccsscsssssss" />
    </g>
  </g>
  <g
     inkscape:groupmode="layer"
     id="layer1"
     inkscape:label="elefant-bg" />
</svg>
